# xmcd
#
# Track frame offsets: 
#        150
#        24422
#        37085
#        51242
#        78825
#        92907
#        110732
#        127682
#        141472
#        161842
#        181947
#        189605
#        250522
#
# Disc length: 3442 seconds
#
# Revision: 14
# Processed by: cddbd v1.5.2PL0 Copyright (c) Steve Scherf et al.
# Submitted via: ExactAudioCopyFreeDBPlugin 1.0
#
DISCID=ad0d700d
DTITLE=Stevie Ray Vaughan - Soul to Soul
DYEAR=1985
DGENRE=Blues
TTITLE0=Say What!
TTITLE1=Lookin' Out the Window
TTITLE2=Look at Little Sister
TTITLE3=Ain't Gone 'n' Give Up on Love
TTITLE4=Gone Home
TTITLE5=Change It
TTITLE6=You'll Be Mine
TTITLE7=Empty Arms
TTITLE8=Come On (Part III)
TTITLE9=Life Without You
TTITLE10=SRV Speaks (bonus track)
TTITLE11=Little Wing - Third Stone from the Sun (bonus track)
TTITLE12=Slip Slidin' Slim (bonus track)
EXTD=YEAR: 1985
EXTT0=
EXTT1=
EXTT2=
EXTT3=
EXTT4=
EXTT5=
EXTT6=
EXTT7=
EXTT8=
EXTT9=
EXTT10=(Bonus)
EXTT11=(Bonus)
EXTT12=(Bonus)
PLAYORDER=
